<svg width="374" height="374" viewBox="0 0 374 374" fill="none" xmlns="http://www.w3.org/2000/svg">
<path d="M357.998 0C366.834 0 374 7.16333 374 15.9999C374 128.91 374 241.954 374 357.998C374 366.834 366.837 374 358 374C245.09 374 132.046 374 16.0024 374C7.16582 374 0 366.837 0 358C0 245.09 0 132.046 0 16.0024C0 7.16581 7.16333 0 15.9999 0C128.91 0 241.954 0 357.998 0Z" fill="#FEFEFE"/>
<path d="M105.797 32.0466C107.746 32.0442 109.695 32.0404 111.644 32.0355C116.915 32.0262 122.185 32.0355 127.455 32.0489C132.981 32.0602 138.506 32.0561 144.032 32.0541C153.307 32.0532 162.583 32.0643 171.858 32.0827C182.572 32.1039 193.287 32.1074 204.001 32.1012C214.323 32.0955 224.645 32.1011 234.967 32.1123C239.354 32.117 243.74 32.1179 248.127 32.1158C253.293 32.1139 258.459 32.122 263.625 32.1378C265.518 32.142 267.411 32.1429 269.304 32.1401C271.893 32.1369 274.482 32.146 277.071 32.1582C278.188 32.1525 278.188 32.1525 279.327 32.1468C290.044 32.2357 298.108 35.8556 305.845 43.1494C311.029 50.1701 312.105 56.9092 312.022 65.4631C312.03 67.0822 312.031 67.0822 312.039 68.734C312.053 72.3336 312.038 75.9326 312.023 79.5322C312.026 82.1199 312.032 84.7076 312.039 87.2952C312.053 93.5837 312.045 99.8719 312.03 106.16C312.013 113.49 312.017 120.82 312.02 128.15C312.026 141.232 312.012 154.314 311.988 167.396C311.964 180.078 311.957 192.76 311.967 205.441C311.978 219.265 311.98 233.089 311.966 246.913C311.964 248.389 311.963 249.864 311.961 251.339C311.961 252.065 311.96 252.791 311.959 253.539C311.954 258.643 311.956 263.747 311.96 268.851C311.966 275.726 311.955 282.601 311.933 289.476C311.928 291.997 311.927 294.519 311.932 297.04C311.938 300.485 311.926 303.93 311.909 307.375C311.918 308.867 311.918 308.867 311.927 310.389C311.838 320.169 309.406 328.284 302.521 335.419C295.078 341.606 286.369 342.728 276.951 342.68C276.138 342.683 275.325 342.687 274.487 342.691C271.788 342.701 269.089 342.698 266.39 342.694C264.445 342.698 262.499 342.703 260.553 342.709C255.287 342.722 250.02 342.723 244.754 342.72C240.35 342.719 235.947 342.724 231.543 342.729C221.152 342.74 210.761 342.741 200.369 342.735C189.664 342.729 178.958 342.741 168.252 342.762C159.046 342.78 149.84 342.786 140.633 342.783C135.141 342.781 129.649 342.783 124.157 342.797C118.992 342.81 113.827 342.808 108.661 342.795C106.771 342.792 104.88 342.795 102.99 342.803C79.7357 342.898 79.7357 342.898 70.3452 335.298C64.7448 329.53 61.4047 322.84 61.3868 314.813C61.3823 313.888 61.3779 312.962 61.3733 312.009C61.3734 310.995 61.3736 309.982 61.3738 308.938C61.3701 307.859 61.3665 306.78 61.3627 305.668C61.3516 302.039 61.3478 298.41 61.344 294.781C61.3377 292.185 61.3311 289.588 61.3241 286.991C61.3043 279.19 61.2942 271.389 61.2853 263.588C61.281 259.912 61.2756 256.237 61.2704 252.562C61.2533 240.342 61.2389 228.122 61.2316 215.902C61.2297 212.731 61.2278 209.561 61.2258 206.391C61.2253 205.603 61.2249 204.816 61.2244 204.004C61.2161 191.242 61.1907 178.48 61.1582 165.718C61.1252 152.611 61.1072 139.504 61.104 126.397C61.1018 119.04 61.0931 111.682 61.0675 104.325C61.0435 97.4034 61.04 90.4819 61.0503 83.5601C61.0508 81.0209 61.0444 78.4816 61.0307 75.9424C61.013 72.4729 61.0201 69.0042 61.0332 65.5347C61.0168 64.0315 61.0168 64.0315 61 62.4979C61.078 53.9632 63.4692 46.6437 69.521 40.4189C79.9164 31.1104 92.6981 31.9893 105.797 32.0466ZM87.8327 58.672C86.1896 60.8603 86.1452 62.0272 86.1435 64.7465C86.1356 65.6354 86.1278 66.5243 86.1198 67.4401C86.1265 68.4177 86.1331 69.3952 86.14 70.4023C86.1354 71.44 86.1307 72.4776 86.1259 73.5468C86.1138 77.0407 86.1234 80.5343 86.1328 84.0283C86.1287 86.5263 86.1234 89.0243 86.1169 91.5223C86.1046 97.613 86.1064 103.704 86.1151 109.794C86.1219 114.743 86.1228 119.692 86.1195 124.641C86.1191 125.345 86.1186 126.048 86.1181 126.773C86.1172 128.203 86.1162 129.632 86.1152 131.061C86.1067 144.473 86.1165 157.884 86.1326 171.295C86.146 182.809 86.1437 194.323 86.1299 205.837C86.1138 219.199 86.1075 232.562 86.1167 245.924C86.1177 247.348 86.1186 248.773 86.1195 250.197C86.12 250.898 86.1205 251.598 86.1209 252.32C86.1235 257.265 86.1192 262.209 86.1121 267.154C86.1028 273.805 86.1094 280.457 86.1268 287.109C86.1308 289.555 86.1296 292.002 86.123 294.448C86.1148 297.778 86.125 301.106 86.14 304.436C86.1333 305.413 86.1267 306.391 86.1198 307.398C86.1276 308.287 86.1354 309.175 86.1435 310.091C86.144 310.86 86.1444 311.629 86.1449 312.421C86.6285 314.99 87.4381 315.873 89.521 317.419C92.1676 317.714 94.5792 317.824 97.2266 317.8C98.0192 317.805 98.8119 317.809 99.6285 317.814C102.293 317.826 104.958 317.817 107.623 317.807C109.529 317.811 111.436 317.817 113.343 317.823C118.529 317.837 123.715 317.831 128.901 317.822C134.32 317.814 139.74 317.821 145.16 317.826C154.263 317.832 163.366 317.824 172.468 317.81C183.001 317.794 193.534 317.799 204.068 317.816C213.101 317.829 222.135 317.831 231.168 317.823C236.568 317.818 241.968 317.818 247.367 317.828C252.443 317.836 257.519 317.83 262.595 317.813C264.461 317.809 266.327 317.81 268.193 317.817C270.734 317.825 273.274 317.815 275.815 317.8C276.559 317.807 277.304 317.813 278.07 317.82C281.887 317.826 281.887 317.826 285.209 316.166C286.852 313.978 286.897 312.811 286.898 310.091C286.906 309.202 286.914 308.314 286.922 307.398C286.916 306.42 286.909 305.443 286.902 304.436C286.909 302.879 286.909 302.879 286.916 301.291C286.928 297.797 286.919 294.304 286.909 290.81C286.913 288.312 286.919 285.814 286.925 283.316C286.937 277.225 286.936 271.134 286.927 265.044C286.92 260.095 286.919 255.146 286.922 250.197C286.923 249.141 286.923 249.141 286.924 248.065C286.925 246.635 286.926 245.206 286.927 243.776C286.935 230.365 286.925 216.954 286.909 203.543C286.896 192.029 286.898 180.515 286.912 169.001C286.928 155.638 286.934 142.276 286.925 128.914C286.924 127.489 286.923 126.065 286.922 124.641C286.922 123.94 286.921 123.239 286.921 122.517C286.918 117.573 286.923 112.629 286.93 107.684C286.939 101.033 286.933 94.381 286.915 87.7293C286.911 85.2827 286.912 82.8361 286.919 80.3895C286.927 77.0602 286.917 73.7315 286.902 70.4023C286.912 68.936 286.912 68.936 286.922 67.4401C286.914 66.5512 286.907 65.6623 286.898 64.7465C286.898 63.9777 286.898 63.2088 286.897 62.4167C286.413 59.8475 285.604 58.9649 283.521 57.4189C280.874 57.1242 278.463 57.0142 275.815 57.038C275.023 57.0333 274.23 57.0286 273.413 57.0238C270.749 57.0118 268.084 57.0213 265.419 57.0307C263.513 57.0267 261.606 57.0213 259.699 57.0148C254.513 57.0011 249.327 57.0064 244.141 57.0159C238.722 57.0235 233.302 57.0165 227.882 57.0118C218.779 57.0063 209.676 57.0135 200.574 57.0278C190.041 57.0441 179.508 57.0388 168.974 57.0223C159.941 57.0087 150.907 57.0068 141.874 57.0146C136.474 57.0193 131.074 57.0199 125.674 57.01C120.599 57.0014 115.523 57.0073 110.447 57.0247C108.581 57.0287 106.715 57.0275 104.849 57.0209C102.308 57.0128 99.7676 57.023 97.2266 57.038C96.4825 57.0313 95.7384 57.0246 94.9718 57.0177C91.1548 57.0121 91.1548 57.0121 87.8327 58.672Z" fill="#2F3238"/>
<path d="M140.481 106.015C142.121 106.004 142.121 106.004 143.794 105.994C147.401 105.976 151.008 105.979 154.615 105.985C157.126 105.981 159.637 105.975 162.147 105.969C167.406 105.96 172.665 105.962 177.924 105.973C183.994 105.984 190.064 105.97 196.134 105.943C201.986 105.918 207.838 105.916 213.69 105.922C216.174 105.923 218.659 105.916 221.144 105.904C224.617 105.889 228.089 105.9 231.563 105.917C233.101 105.902 233.101 105.902 234.671 105.888C240.613 105.949 243.981 106.488 248.522 110.419C251.72 114.15 251.988 117.524 251.807 122.27C251.274 126.288 249.648 128.478 246.598 131.026C241.953 133.129 237.535 132.844 232.493 132.823C231.38 132.83 230.267 132.836 229.121 132.844C225.443 132.862 221.766 132.858 218.088 132.852C215.531 132.857 212.975 132.862 210.418 132.868C205.059 132.877 199.7 132.875 194.341 132.865C188.154 132.853 181.968 132.867 175.781 132.894C169.82 132.919 163.859 132.921 157.897 132.915C155.365 132.915 152.833 132.921 150.301 132.933C146.76 132.948 143.221 132.938 139.68 132.92C138.634 132.93 137.588 132.94 136.511 132.95C130.538 132.889 127.048 132.439 122.522 128.419C119.542 123.95 120.038 119.658 120.522 114.419C121.828 110.936 122.873 109.845 125.954 107.819C130.861 105.893 135.254 105.992 140.481 106.015Z" fill="#31343A"/>
<path d="M172.522 163.419C176.974 165.731 179.337 167.936 181.522 172.419C181.903 175.561 181.903 175.561 181.91 179.134C181.915 179.788 181.92 180.442 181.926 181.116C181.939 183.268 181.93 185.419 181.92 187.571C181.922 189.074 181.925 190.577 181.929 192.08C181.933 195.227 181.927 198.373 181.913 201.519C181.896 205.542 181.905 209.564 181.923 213.587C181.934 216.69 181.931 219.793 181.923 222.896C181.921 224.379 181.924 225.861 181.931 227.344C181.938 229.421 181.926 231.498 181.91 233.575C181.907 234.755 181.905 235.934 181.903 237.15C181.362 241.786 179.915 245.189 176.397 248.294C172.352 249.877 168.807 250.106 164.522 249.419C160.457 247.35 158.125 245.682 156.522 241.419C156.261 238.352 156.261 238.352 156.247 234.71C156.242 234.045 156.237 233.379 156.231 232.693C156.218 230.499 156.219 228.305 156.221 226.11C156.217 224.581 156.213 223.052 156.208 221.522C156.2 218.319 156.201 215.115 156.206 211.912C156.212 207.812 156.195 203.712 156.172 199.612C156.157 196.454 156.156 193.296 156.159 190.138C156.159 188.627 156.153 187.115 156.143 185.604C156.131 183.488 156.138 181.373 156.149 179.257C156.149 178.054 156.148 176.852 156.147 175.613C156.701 170.886 158.882 167.452 162.522 164.419C166.141 163.213 168.714 163.096 172.522 163.419Z" fill="#2E3237"/>
<path d="M172.521 163.419C175.622 165.174 178.01 166.907 180.521 169.419C180.146 171.544 180.146 171.544 179.521 173.419C179.088 172.635 178.655 171.851 178.209 171.044C176.629 168.202 176.629 168.202 173.521 166.419C171.307 166.066 171.307 166.066 168.959 166.106C168.174 166.089 167.389 166.073 166.58 166.055C165.901 166.175 165.221 166.295 164.521 166.419C163.531 167.904 163.531 167.904 162.521 169.419C161.201 169.089 159.881 168.759 158.521 168.419C162.912 163.725 166.082 162.873 172.521 163.419Z" fill="#1F2125"/>
</svg>
